<svg xmlns="http://www.w3.org/2000/svg" viewBox="0 0 3873 533"><path fill="#fccc04" d="M959 62.612c-50.142 6.172-93.251 41.266-106.392 86.611-6.815 23.519-5.841 55.594 2.312 76.086 12.2 30.667 31.298 52.35 60.08 68.211 20.401 11.243 20.926 12.24 29.338 55.733 3.484 18.014 6.521 32.929 6.748 33.144.228.214 9.945.557 21.595.762l21.181.371 2.156-9.515c14.679-64.796 14.895-65.279 35.233-79.069 17.962-12.177 41.207-37.513 52.519-57.242 35.332-61.618-1.569-146.465-73.77-169.625-14.26-4.574-37.775-7.094-51-5.467m.121 35.098c-8.435 4.155-9.611 16.282-1.975 20.368 1.123.601 7.063 1.736 13.198 2.521 38.733 4.959 60.465 24.803 65.602 59.907 1.956 13.365 5.392 17.494 14.558 17.494 4.045 0 5.188-.492 8.241-3.545l3.545-3.545-.588-8.705c-2.254-33.353-20.01-61.735-47.202-75.45-16.454-8.299-46.824-13.259-55.379-9.045" fill-rule="evenodd"/></svg>