<?xml version="1.0" encoding="UTF-8"?>
<svg version="1.1" xmlns="http://www.w3.org/2000/svg" width="3873" height="533">
<path d="M0 0 C1.23707136 -0.00685381 2.47414272 -0.01370762 3.7487011 -0.02076912 C4.76366944 -0.02795684 5.77863779 -0.03514456 6.82436275 -0.04255009 C15.26310575 0.1964984 24.15167901 1.64977643 30.37197685 7.75924492 C36.79948633 15.54969617 36.92340956 24.53196678 36.8836956 34.28268242 C36.88560905 35.33383736 36.88752251 36.38499229 36.88949394 37.46800041 C36.89084788 39.67909804 36.88720706 41.89020383 36.87881279 44.10128593 C36.86811304 47.46076373 36.87872981 50.81970554 36.8915081 54.17916679 C36.89018616 56.33867317 36.88762304 58.49817921 36.8836956 60.65768242 C36.88774406 61.64965126 36.89179253 62.6416201 36.89596367 63.66364861 C36.83080873 73.49439437 35.92254042 82.87122489 29.4305706 90.66158867 C18.78489248 99.65127242 5.57969177 98.18256388 -7.68295479 98.22604179 C-9.07619653 98.23400878 -10.46943591 98.24239855 -11.86267281 98.25117302 C-14.84334352 98.26909383 -17.82400948 98.28415916 -20.80470657 98.29694939 C-25.55781097 98.31745639 -30.31085901 98.34507955 -35.06392097 98.3736248 C-44.33593129 98.42839253 -53.60796971 98.4765355 -62.88002205 98.52356529 C-74.59638281 98.58306698 -86.31272682 98.64440275 -98.02903169 98.71413755 C-101.9607999 98.73733668 -105.89256097 98.75892728 -109.82435989 98.77622795 C-119.26378667 98.81815904 -128.70219576 98.89193902 -138.14098787 99.0100193 C-140.47594974 99.03770341 -142.81092948 99.06032601 -145.14594841 99.08263969 C-149.1477857 99.12332507 -153.1487846 99.18631635 -157.15007102 99.2638464 C-158.66109678 99.29029099 -160.17225012 99.31037548 -161.68345082 99.32343769 C-170.05763901 99.40163555 -178.00391544 99.59425749 -185.3819294 104.03658867 C-190.72416147 110.00932983 -189.94668869 116.9481674 -189.87802315 124.63424492 C-189.88020599 126.59568695 -189.88020599 126.59568695 -189.88243294 128.59675407 C-189.88381188 131.35465635 -189.87134346 134.11203536 -189.84848213 136.86984062 C-189.82007009 140.3926277 -189.82284873 143.91454837 -189.83557224 147.43739986 C-189.84422467 150.81560454 -189.82907512 154.19355483 -189.81552315 157.57174492 C-189.81845879 158.83124458 -189.82139442 160.09074425 -189.82441902 161.38841057 C-189.81173485 162.56660866 -189.79905067 163.74480675 -189.78598213 164.95870781 C-189.77787766 166.50589249 -189.77787766 166.50589249 -189.76960945 168.08433342 C-189.28370813 171.78456179 -188.5404141 173.96772334 -186.3819294 177.03658867 C-179.3393128 181.01705021 -171.86222121 180.41508271 -163.97055244 180.31368828 C-162.51926479 180.30628325 -161.06796945 180.30027363 -159.61667061 180.29554558 C-156.50369732 180.28272294 -153.39097692 180.26068045 -150.27811432 180.23151779 C-145.34715915 180.18596174 -140.41627909 180.16474154 -135.48515511 180.1473217 C-123.23718287 180.10036786 -110.98942409 180.02310087 -98.74167061 179.93679619 C-89.22028383 179.86995632 -79.69903382 179.81222672 -70.17745048 179.7822457 C-65.2845877 179.76582558 -60.39233983 179.73070289 -55.49970663 179.6810683 C-52.44433012 179.65424098 -49.38906431 179.6443963 -46.33358192 179.63903809 C-44.92716033 179.63319335 -43.52074609 179.62051979 -42.11445999 179.60014153 C-32.94283503 179.47196959 -23.53171593 179.71090391 -16.18241596 185.88412189 C-7.18690909 195.07687795 -7.62048325 206.96280476 -7.3819294 219.03658867 C-7.35469795 220.35288261 -7.32746651 221.66917656 -7.29940987 223.0253582 C-7.22866625 226.76737023 -7.18365206 230.50916322 -7.1527729 234.25170708 C-7.13901116 235.76028075 -7.12072995 237.2688208 -7.09765816 238.77728081 C-6.92815478 250.85318299 -7.30157127 261.00008554 -16.0694294 270.12252617 C-25.35134573 277.8051934 -37.32621467 277.18482619 -48.70175362 277.19430351 C-50.04777375 277.19897856 -51.39379233 277.20412326 -52.73980904 277.20969963 C-55.62786776 277.22093243 -58.51591645 277.2293896 -61.40398979 277.23581886 C-65.97733271 277.24655193 -70.55060306 277.26680992 -75.12390327 277.28893852 C-88.12508 277.35068746 -101.1262512 277.40485515 -114.12753487 277.43795586 C-121.31618691 277.45633746 -128.50471594 277.48531341 -135.69327748 277.52596056 C-139.4913089 277.54696294 -143.28918583 277.56247827 -147.08727837 277.56476784 C-150.66119733 277.56692511 -154.23479409 277.58290333 -157.80861473 277.60915756 C-159.73312997 277.61970027 -161.65770826 277.61561456 -163.58224678 277.61097527 C-171.70789606 277.6884525 -178.8334177 278.16757921 -185.3194294 283.41158867 C-188.75189882 287.78018611 -189.63168654 291.41812691 -189.6565876 296.9250164 C-189.66611961 298.08649696 -189.67565163 299.24797752 -189.68547249 300.44465446 C-189.68456108 301.69057869 -189.68364967 302.93650291 -189.68271065 304.22018242 C-189.68913834 306.15257523 -189.68913834 306.15257523 -189.69569588 308.12400627 C-189.70314146 310.84661801 -189.70287892 313.56910002 -189.69760323 316.29171562 C-189.69181004 319.76965968 -189.70874327 323.24707093 -189.7319479 326.72492695 C-189.75027705 330.05670058 -189.74649897 333.38835871 -189.74521065 336.72018242 C-189.75442039 337.96408241 -189.76363014 339.20798241 -189.77311897 340.48957634 C-189.81020816 348.70684101 -189.81020816 348.70684101 -186.3819294 356.03658867 C-176.28271602 365.6042645 -160.45898394 363.20441231 -147.48446846 363.31783867 C-145.81409484 363.33568297 -144.14372541 363.35392345 -142.47336006 363.37252617 C-138.89843216 363.41154828 -135.32349101 363.44790152 -131.74851418 363.48214531 C-126.08067194 363.53655068 -120.41291302 363.5976236 -114.74514961 363.65963554 C-102.70746139 363.79041106 -90.66970122 363.91379097 -78.6319294 364.03658867 C-65.64556956 364.16917389 -52.65923149 364.30320721 -39.67296958 364.4451046 C-34.05423654 364.50625712 -28.43548215 364.56342096 -22.81667566 364.61738396 C-19.30214736 364.6519704 -15.78766253 364.69003333 -12.27318001 364.72897148 C-10.66089785 364.74613938 -9.0486001 364.76191733 -7.43628883 364.77609062 C0.49000104 364.84648693 8.41316018 364.99220445 16.33151054 365.36666679 C17.58975765 365.42213676 18.84800476 365.47760674 20.14438057 365.53475761 C26.37643526 366.43507933 30.68862274 369.1764821 34.6180706 374.03658867 C38.01035026 380.68702035 39.25326506 386.75763836 39.3680706 394.16158867 C39.39409355 395.1222625 39.4201165 396.08293633 39.44692802 397.07272148 C39.49729719 399.20596461 39.53670092 401.33948672 39.56680107 403.47311211 C39.60312991 405.99813958 39.65061206 408.52100585 39.71230888 411.04537773 C39.79764523 414.588826 39.85760737 418.13197485 39.90115166 421.67617607 C39.92051386 423.065153 39.94598492 424.45406044 39.97805595 425.84280205 C40.19274784 435.8235558 39.47286146 445.18288917 33.3680706 453.47408867 C27.39729355 459.03776729 20.81975996 461.14437157 12.72037029 461.18084049 C11.75516486 461.18754833 10.78995943 461.19425618 9.79550534 461.20116729 C8.74298902 461.20350963 7.69047269 461.20585198 6.60606194 461.2082653 C4.91964656 461.21778897 4.91964656 461.21778897 3.19916219 461.22750503 C-0.57615216 461.24757964 -4.35145771 461.26061255 -8.12680244 461.27364922 C-10.83049675 461.28596763 -13.53418333 461.29972819 -16.23787117 461.3133831 C-22.82522751 461.34568369 -29.41259521 461.37252064 -35.99998417 461.39718588 C-41.35638378 461.41725799 -46.71277505 461.43885485 -52.06916428 461.46152496 C-67.26210961 461.52563603 -82.45506338 461.58554669 -97.64804568 461.64020707 C-98.87648047 461.64462763 -98.87648047 461.64462763 -100.12973213 461.6491375 C-101.35967073 461.6535621 -101.35967073 461.6535621 -102.61445657 461.65807609 C-115.89613722 461.70611466 -129.1777525 461.76419879 -142.45937159 461.82683518 C-156.10332196 461.89106206 -169.74728578 461.9476689 -183.3913005 461.99640304 C-191.04869075 462.02391196 -198.7060386 462.05455611 -206.36338043 462.09341812 C-212.88468703 462.12645724 -219.40597471 462.15240773 -225.92734399 462.16927441 C-229.25214967 462.17807522 -232.57678373 462.19121721 -235.9015522 462.21108246 C-239.51274426 462.23211394 -243.12375796 462.24053853 -246.73500252 462.24586296 C-247.77636523 462.25489747 -248.81772795 462.26393198 -249.89064711 462.27324027 C-259.4722806 462.26231523 -268.88841048 461.57931701 -276.3819294 455.03658867 C-288.27541597 442.36099074 -285.8447061 422.21541999 -285.85519719 406.19078994 C-285.86087727 402.63183213 -285.88392754 399.07297761 -285.90474129 395.51408195 C-285.93885056 389.28897159 -285.96232286 383.0638941 -285.9786396 376.83871269 C-286.00271475 367.68833508 -286.04328021 358.53808593 -286.08790982 349.38778806 C-286.15851192 334.86323159 -286.21912837 320.33865463 -286.27383602 305.81403041 C-286.36907925 280.62667064 -286.50179427 255.4395683 -286.64097023 230.2524178 C-286.69573846 220.31402326 -286.74944041 210.37562284 -286.80331612 200.43722343 C-286.80921871 199.34898415 -286.8151213 198.26074486 -286.82120275 197.13952863 C-286.90819667 181.09212094 -286.99439153 165.04470916 -287.07773018 148.99728203 C-287.08301404 147.98032568 -287.08829791 146.96336933 -287.09374189 145.91559613 C-287.14975561 135.08147988 -287.20265989 124.24735992 -287.24740791 113.41319084 C-287.25123663 112.48639816 -287.25506534 111.55960547 -287.25901008 110.60472816 C-287.27395519 106.96451428 -287.28880027 103.32430012 -287.30314493 99.68408382 C-287.34091213 90.12566465 -287.38731527 80.5675123 -287.46585733 71.00933385 C-287.51271174 65.30219411 -287.54696076 59.5950401 -287.57563782 53.88777733 C-287.58941986 51.69232703 -287.60842255 49.49690143 -287.63339615 47.30154991 C-287.92865759 21.09281542 -287.92865759 21.09281542 -281.1319294 12.53658867 C-267.36079761 -1.40812881 -244.56323927 1.86078189 -226.54623604 1.73946953 C-224.14341614 1.72000043 -221.74059939 1.70013809 -219.33778572 1.67991447 C-213.5148746 1.6319104 -207.69194326 1.58800281 -201.8689862 1.54597133 C-195.07217833 1.49669697 -188.2754133 1.44239438 -181.47864609 1.38784022 C-169.34169702 1.29056462 -157.20472029 1.19735407 -145.06772041 1.10665703 C-133.32063081 1.01886635 -121.57356105 0.92889322 -109.82650948 0.83614922 C-109.10303961 0.83043795 -108.37956975 0.82472668 -107.63417656 0.81884234 C-104.72510505 0.79587012 -101.81603363 0.77288684 -98.90696234 0.74988788 C-85.63951289 0.64503025 -72.37205147 0.54169621 -59.10458565 0.43893242 C-58.09955517 0.4311464 -58.09955517 0.4311464 -57.07422104 0.42320308 C-48.68361365 0.35824322 -40.29300059 0.29407853 -31.90237808 0.23109818 C-29.57165073 0.21353926 -27.24092468 0.19580649 -24.91020012 0.17788124 C-18.89870012 0.13173826 -12.8872032 0.08873275 -6.87563443 0.05256534 C-4.58372335 0.03788152 -2.2918768 0.01917364 0 0 Z " fill="#ffffff" transform="translate(3833.381929397583,62.96341133117676)"/>
<path d="M0 0 C1.09034546 -0.0038269 2.18069092 -0.00765381 3.30407715 -0.01159668 C5.59318982 -0.01430026 7.88233421 -0.007049 10.17138672 0.00976562 C13.64751982 0.03119618 17.12158637 0.00990906 20.59765625 -0.015625 C22.835942 -0.01298145 25.07422648 -0.00785591 27.3125 0 C28.84892151 -0.01214539 28.84892151 -0.01214539 30.41638184 -0.02453613 C38.71833027 0.08176413 45.79187798 2.06443103 53.03125 6.15625 C58.83915031 12.6474327 61.27464757 20.21117471 61.29428101 28.7625885 C61.29973434 30.04270309 61.30518768 31.32281769 61.31080627 32.64172363 C61.31192596 34.05810542 61.3129765 35.47448726 61.31396484 36.89086914 C61.31863455 38.38411101 61.32377837 39.87735147 61.32936096 41.37059021 C61.34063 44.58447702 61.34906975 47.79835461 61.35548019 51.01225471 C61.36616424 56.09198076 61.38640833 61.17164032 61.40859985 66.25132751 C61.47051649 80.6952715 61.52459126 95.13921085 61.55761719 109.58325195 C61.5759399 117.56178497 61.60484168 125.54020596 61.6456219 133.51865667 C61.666723 137.74131325 61.68215362 141.96382851 61.68442917 146.1865406 C61.6865705 150.15518224 61.70238654 154.12352913 61.72881889 158.09208107 C61.73603177 159.55017219 61.73810326 161.00829894 61.73471642 162.46640396 C61.73083777 164.45325496 61.74699702 166.44011528 61.76425171 168.42689514 C61.76921693 170.09630456 61.76921693 170.09630456 61.77428246 171.79943943 C61.94002432 174.54169052 61.94002432 174.54169052 63.51668739 176.40886593 C65.18630287 177.77057351 65.18630287 177.77057351 67.78125 177.59375 C75.83562734 175.05811269 81.98489172 169.14420481 87.7890625 163.2265625 C88.46999969 162.54375214 89.15093689 161.86094177 89.85250854 161.15744019 C91.27940207 159.72387558 92.70271984 158.28674356 94.12255859 156.84619141 C96.27579969 154.66177921 98.43953642 152.48822827 100.60546875 150.31640625 C102.00062428 148.91207826 103.39517595 147.50715005 104.7890625 146.1015625 C105.74246017 145.14179001 105.74246017 145.14179001 106.71511841 144.16262817 C110.46361514 140.35519729 114.0213963 136.43038326 117.51705933 132.39035034 C119.78830483 129.8144003 122.18013279 127.4127214 124.625 125 C125.10900269 124.51978394 125.59300537 124.03956787 126.0916748 123.5447998 C128.11924646 121.53325121 130.15287849 119.52787347 132.18603516 117.52197266 C139.119912 110.7151143 139.119912 110.7151143 145.65625 103.53125 C150.7947493 97.51680004 156.55884394 92.07372754 162.18603516 86.52197266 C169.10531564 79.73160218 169.10531564 79.73160218 175.625 72.5625 C180.94667569 66.33364791 186.93260414 60.70084554 192.75878906 54.94921875 C198.12238935 49.64810062 203.40210996 44.35019075 208.30078125 38.609375 C213.00233581 33.3436339 218.16222145 28.47843872 223.18603516 23.52197266 C228.48459477 18.28805036 233.74483417 13.07376738 238.54101562 7.36523438 C239.34055664 6.45741211 239.34055664 6.45741211 240.15625 5.53125 C240.83921143 4.64058838 241.52217285 3.74992676 242.22583008 2.83227539 C246.46522805 -0.49658622 249.89991876 -0.07734293 255.13671875 0.12109375 C256.58876457 0.15076988 256.58876457 0.15076988 258.07014465 0.18104553 C260.1171567 0.22889616 262.16390728 0.28936891 264.21020508 0.36157227 C267.31540736 0.46778059 270.41887609 0.5270491 273.52539062 0.58007812 C275.52090944 0.63260048 277.51635864 0.68785293 279.51171875 0.74609375 C280.88725166 0.77146461 280.88725166 0.77146461 282.29057312 0.79734802 C292.92649826 1.22874621 300.76153334 5.00876285 308.15625 12.53125 C308.97416016 13.33369141 308.97416016 13.33369141 309.80859375 14.15234375 C318.27889266 23.13991282 321.5104 35.33410122 321.53125 47.40625 C321.55574219 48.14488281 321.58023437 48.88351563 321.60546875 49.64453125 C321.64913627 58.04325087 319.10057755 64.83807196 313.29296875 70.9453125 C311.82504097 72.3647895 310.34162838 73.76841454 308.84375 75.15625 C307.36607482 76.56257124 305.89079232 77.97141103 304.41796875 79.3828125 C303.32234619 80.42937012 303.32234619 80.42937012 302.20458984 81.49707031 C300.38119919 83.30785589 298.708576 85.15619569 297.05078125 87.1171875 C290.55994317 94.69711734 283.20379281 101.5344727 276.1171875 108.54980469 C274.12808897 110.52066341 272.14212103 112.49464005 270.15625 114.46875 C269.558125 115.05857666 268.96 115.64840332 268.34375 116.25610352 C265.33175151 119.25087378 262.44726535 122.30304405 259.66992188 125.51757812 C256.25950202 129.46293788 252.64852218 133.1511478 248.9375 136.8125 C248.27592896 137.47028442 247.61435791 138.12806885 246.93273926 138.80578613 C244.14046856 141.58191558 241.34219584 144.35196537 238.54443359 147.12255859 C236.48584102 149.1629208 234.43037097 151.20639331 232.375 153.25 C231.75500122 153.86170044 231.13500244 154.47340088 230.49621582 155.1036377 C226.76038023 158.81882079 223.25564034 162.66879944 219.81185913 166.65524292 C217.48611975 169.29058931 215.02302182 171.72344115 212.50390625 174.17578125 C211.46910732 175.19306068 210.4346115 176.21064852 209.40039062 177.22851562 C207.81331194 178.78482467 206.22401851 180.33863523 204.62915039 181.88696289 C191.71478167 193.43310159 191.71478167 193.43310159 184.94140625 208.3359375 C185.5540671 217.44787518 193.27287833 225.67846515 198.67333984 232.61962891 C201.75485083 236.59200806 204.79546318 240.5958603 207.84375 244.59375 C208.87870605 245.94859497 208.87870605 245.94859497 209.93457031 247.33081055 C214.44641871 253.24854755 218.88752687 259.21293693 223.28125 265.21875 C228.36636554 272.16752045 233.59199247 278.98818869 238.90673828 285.76245117 C243.70017479 291.89304643 248.31475055 298.14321616 252.90625 304.42578125 C256.89751806 309.86922943 260.98983142 315.22092632 265.15625 320.53125 C270.54468796 327.39910285 275.75570326 334.37826976 280.90625 341.42578125 C284.89752328 346.86923655 288.99001126 352.22077897 293.15625 357.53125 C299.83372458 366.04751748 306.27030427 374.72731843 312.64648438 383.47070312 C313.97681146 385.28635005 315.31961219 387.09129658 316.671875 388.890625 C326.04786219 401.46139301 330.57522744 414.56260855 328.7265625 430.43359375 C326.5700893 442.14649271 322.13973292 451.61960798 312.15625 458.53125 C305.08848319 462.10917125 298.67091321 463.20865201 290.8125 463.34375 C289.76276001 463.36655029 288.71302002 463.38935059 287.63146973 463.4128418 C285.42651185 463.45038206 283.22133614 463.47667369 281.01611328 463.4921875 C277.66170843 463.53118654 274.31696848 463.65547777 270.96484375 463.78125 C254.38497613 464.11025156 254.38497613 464.11025156 249.6027832 460.05932617 C246.93802237 457.19378831 245.05070634 453.94791299 243.15625 450.53125 C242.13262967 449.15457333 241.08779634 447.79310545 240.01171875 446.45703125 C239.11927838 445.25491228 238.22994512 444.05048032 237.34375 442.84375 C236.32624232 441.47342232 235.30798692 440.10364958 234.2890625 438.734375 C233.77504883 438.04279297 233.26103516 437.35121094 232.73144531 436.63867188 C230.08830658 433.10247015 227.40432207 429.59777445 224.71875 426.09375 C224.17887451 425.38903564 223.63899902 424.68432129 223.08276367 423.95825195 C221.98784056 422.52946117 220.89270681 421.10083178 219.79736328 419.67236328 C217.08049572 416.12774434 214.36861299 412.57931623 211.65625 409.03125 C210.57294084 407.61456485 209.4896075 406.19789819 208.40625 404.78125 C149.90625 328.28125 149.90625 328.28125 148.28051758 326.15527344 C147.19964983 324.74184349 146.11875799 323.32843196 145.0378418 321.91503906 C141.73337803 317.59408539 138.42914037 313.27296043 135.12768555 308.94970703 C134.03128299 307.51655802 132.93252634 306.08520658 131.83129883 304.65576172 C129.29975315 301.36586925 126.8044435 298.06275178 124.3984375 294.6796875 C119.66665621 287.77834992 119.66665621 287.77834992 112.96875 283.03125 C108.37972526 282.42941069 105.81438639 282.8306626 102.15625 285.53125 C99.55003225 287.93205157 97.08230302 290.42388038 94.6328125 292.984375 C92.53069599 295.14617305 90.4029046 297.09928798 88.09375 299.03125 C84.28017912 302.29676279 81.01743139 305.89991634 77.78451538 309.73698425 C75.15625 312.53125 75.15625 312.53125 72.10610962 314.73750305 C67.56222682 318.09363495 63.90785371 321.54157695 62.49297333 327.16958237 C61.46710928 335.14734986 61.83207929 343.17957086 62.0546875 351.19921875 C62.08219224 353.80604364 62.10404233 356.41293373 62.12051392 359.01985168 C62.16790717 365.16178131 62.27470943 371.30107669 62.40510523 377.44174796 C62.59356775 386.44196617 62.69242646 395.44326835 62.79068947 404.44485188 C62.86183687 410.90667445 62.94683605 417.36742626 63.07504272 423.82841492 C63.09494263 425.01849152 63.11484253 426.20856812 63.13534546 427.43470764 C63.1723313 429.64207561 63.21716267 431.84933359 63.27178955 434.05633545 C63.38437012 441.67790032 63.47553276 450.38869404 57.86447144 456.2611084 C49.85634841 462.21551805 39.9264285 462.12117106 30.3984375 462.0625 C29.00082124 462.06520295 27.60320683 462.06909199 26.20559692 462.07409668 C23.29589696 462.07995032 20.38669254 462.07156198 17.47705078 462.05273438 C13.77069775 462.02990347 10.06550113 462.04311891 6.35918999 462.06702423 C3.47986314 462.08155913 0.60080534 462.07684214 -2.27853012 462.06651306 C-4.30183425 462.06259627 -6.32514939 462.07461557 -8.34841919 462.08703613 C-17.25156292 461.99688063 -24.01009867 461.03154034 -30.71875 454.90625 C-36.67339767 445.44886841 -36.27797512 435.20237812 -36.24488831 424.41320801 C-36.25049889 422.67515892 -36.2574035 420.93711362 -36.26548427 419.19907427 C-36.28377955 414.44086755 -36.28344451 409.68281942 -36.27990115 404.92458558 C-36.27928766 399.78611979 -36.29585911 394.64770429 -36.31007385 389.50926208 C-36.33496083 379.45007615 -36.34323682 369.39094297 -36.34491099 359.33172882 C-36.34633762 351.15555756 -36.35250762 342.97940367 -36.36201286 334.80323792 C-36.38842051 311.61586775 -36.40227239 288.4285392 -36.40002144 265.2411539 C-36.39990157 263.99191002 -36.3997817 262.74266615 -36.3996582 261.45556641 C-36.39953556 260.20479571 -36.39941292 258.95402501 -36.39928656 257.66535217 C-36.39806657 237.38394507 -36.42679357 217.1027049 -36.4690733 196.8213461 C-36.51215605 175.99032072 -36.53288446 155.15937679 -36.53029197 134.32830572 C-36.52929596 122.63559254 -36.53754193 110.94305451 -36.56982613 99.25038147 C-36.59712958 89.29805975 -36.60367636 79.34599263 -36.58329786 69.3936497 C-36.57349722 64.31684504 -36.57334904 59.24052897 -36.5993576 54.16377068 C-36.62293452 49.51385108 -36.61867949 44.86480801 -36.59250521 40.21490997 C-36.58789608 38.53536119 -36.59336488 36.85574719 -36.61008544 35.17627531 C-36.70935057 24.49612246 -35.58678121 16.89242786 -28.16501433 8.67182493 C-20.67143431 1.14441868 -10.10621957 -0.07988949 0 0 Z " fill="#ffffff" transform="translate(435.84375,61.46875)"/>
<path d="M0 0 C2.43990091 -0.00296783 4.87979751 -0.00707853 7.31969619 -0.01150417 C15.00354755 -0.02510879 22.68738862 -0.03481216 30.37125117 -0.03870606 C39.15045683 -0.04318395 47.92950661 -0.06074935 56.70866495 -0.08970666 C63.56032948 -0.11149985 70.41195067 -0.12141947 77.2636494 -0.12274718 C81.32688933 -0.12378175 85.38998138 -0.12939573 89.45318389 -0.1475668 C138.42728079 -0.35394294 184.58862657 8.51087641 220.91403556 43.77831364 C247.31067549 70.35037186 262.12976325 109.20894894 262.47653556 146.43846989 C262.48632941 147.30875324 262.49612327 148.1790366 262.5062139 149.07569218 C262.9441351 198.13567376 254.42378838 244.68092389 218.92575431 280.95018864 C183.72249548 315.81837778 132.56265657 324.52527993 85.02145743 324.4433527 C74.17192602 324.33362631 63.41836162 323.62794557 52.61716056 322.63768864 C43.12342025 321.80606578 33.99558951 321.41373817 26.17575431 327.63768864 C23.47084334 331.21515153 23.11632257 334.12396251 23.09349418 338.53092289 C23.08659568 339.39007298 23.07969718 340.24922306 23.07258964 341.134408 C23.06997626 342.06901356 23.06736289 343.00361912 23.06467032 343.96654606 C23.05463981 345.45266392 23.05463981 345.45266392 23.04440665 346.96880436 C23.03036117 349.12025762 23.01846552 351.27172573 23.00845885 353.42320156 C22.99203002 356.8327493 22.96878952 360.24218764 22.94356132 363.65168095 C22.87284948 373.3459358 22.81277141 383.04023596 22.76144767 392.73461246 C22.72956998 398.66558414 22.68826931 404.5964308 22.64125228 410.52730083 C22.6252817 412.78341061 22.61293744 415.03954918 22.60434508 417.29569912 C22.59212504 420.45954723 22.56794597 423.62310419 22.54123282 426.78685856 C22.54064368 427.71134296 22.54005454 428.63582737 22.53944755 429.58832645 C22.43899439 438.6146415 21.32921277 447.17569132 15.23825431 454.20018864 C9.4597898 458.91419916 4.16901167 460.315389 -3.2353785 460.34545231 C-4.84295022 460.35502209 -4.84295022 460.35502209 -6.48299813 460.36478519 C-8.20652505 460.36645443 -8.20652505 460.36645443 -9.96487069 460.36815739 C-11.15723336 460.37148579 -12.34959603 460.37481419 -13.57809091 460.37824345 C-16.09975447 460.38330243 -18.62142471 460.38565209 -21.14309335 460.38549137 C-24.98353896 460.38767262 -28.82369482 460.40582519 -32.66408944 460.42479801 C-35.11851555 460.42773326 -37.57294301 460.42971718 -40.02737069 460.43065739 C-41.16829171 460.4378429 -42.30921273 460.44502842 -43.48470712 460.45243168 C-53.24718267 460.42473189 -60.85929837 460.00730515 -68.10158944 453.06737614 C-73.9091761 446.53554926 -73.90989997 439.23808317 -73.88872933 430.99047184 C-73.89029145 430.05741862 -73.89185356 429.1243654 -73.89346302 428.16303784 C-73.89746456 425.02566583 -73.89429221 421.88834227 -73.89114022 418.75096989 C-73.8924646 416.49274226 -73.89421141 414.23451485 -73.89634728 411.97628784 C-73.9008547 405.79069365 -73.89898372 399.60511558 -73.89591956 393.41952109 C-73.89385765 387.50227544 -73.89630602 381.58503265 -73.89842845 375.66778728 C-73.90366362 360.0500621 -73.89797347 344.4323469 -73.88999914 328.8146237 C-73.88739764 323.68687283 -73.88523719 318.55912192 -73.88334298 313.43137074 C-73.86828551 272.97110767 -73.83111176 232.51089915 -73.77289987 192.05067539 C-73.76386702 185.76090364 -73.75552776 179.47113123 -73.74742424 173.18135822 C-73.71540816 148.60830549 -73.66589796 124.03547087 -73.56337059 99.46260226 C-73.55968825 98.5799291 -73.55600592 97.69725595 -73.552212 96.78783512 C-73.54854383 95.91283497 -73.54487566 95.03783482 -73.54109633 94.13631952 C-73.51637952 88.02211576 -73.50168112 81.90793792 -73.49129891 75.7936945 C-73.47869059 68.47449023 -73.45249551 61.15550195 -73.40733325 53.83642286 C-73.38514842 50.19648304 -73.36878739 46.55680286 -73.36982751 42.91678905 C-73.37069989 39.04625111 -73.34083586 35.17630558 -73.30764413 31.30590153 C-73.31267512 30.19698048 -73.31770612 29.08805943 -73.32288957 27.94553471 C-73.21098358 19.66000662 -71.67402406 12.80039002 -65.63674569 6.82518864 C-58.94674461 1.78324628 -51.72124566 1.02841265 -43.53445077 0.6386652 C-42.67955214 0.59754234 -41.8246535 0.55641949 -40.94384885 0.51405048 C-27.30666428 -0.06362521 -13.64707285 0.01580511 0 0 Z M28.17575431 101.01268864 C23.4893773 106.30375945 23.94685511 111.9814979 23.96359611 118.69432926 C23.95848517 119.75016712 23.95337424 120.80600498 23.94810843 121.89383793 C23.93421636 125.38142926 23.93516875 128.86882294 23.93747306 132.35643864 C23.93358635 134.781122 23.92925173 137.20580469 23.92448783 139.63048649 C23.91702675 144.71119743 23.91731643 149.79183887 23.92258048 154.87255192 C23.92837941 161.38617388 23.91143307 167.89951189 23.88823581 174.41308689 C23.87351231 179.41962697 23.87262482 184.4260984 23.87574553 189.43265629 C23.87523178 191.83444628 23.86998385 194.23624005 23.85993361 196.63800907 C23.84761167 199.99421057 23.85433548 203.34985557 23.86593986 206.70604801 C23.85829612 207.69944691 23.85065238 208.6928458 23.84277701 209.71634769 C23.88945692 215.81754177 24.69643799 219.23473627 28.73825431 223.95018864 C31.88303487 226.5708391 35.23274433 226.34879864 39.13644767 226.4055109 C40.35299537 226.42545612 41.56954307 226.44540134 42.82295585 226.46595097 C44.15800148 226.48297191 45.49304895 226.49984925 46.82809806 226.51659489 C48.21079919 226.53721299 49.5934947 226.55821055 50.97618461 226.57956791 C53.88731979 226.62356609 56.79847587 226.66444812 59.70968986 226.70287418 C63.37967304 226.75134396 67.04955229 226.80508143 70.71943164 226.86081028 C78.33947948 226.97643657 85.95955105 227.07375624 93.58002067 227.15697575 C96.88112019 227.19596999 100.18176536 227.24742077 103.48263907 227.30175114 C105.25533566 227.32203813 107.02804036 227.34163643 108.80075431 227.36034489 C109.56012794 227.37650349 110.31950156 227.39266209 111.10188651 227.40931034 C125.32248807 227.50102732 139.909922 220.14649357 150.10934806 210.51268864 C163.91319761 195.51841537 167.927679 176.53945023 167.49216056 156.74315739 C166.75536973 139.27862294 160.80866689 124.29467875 148.23825431 112.01268864 C134.26665743 100.24458451 117.99533955 96.72497344 100.24216056 96.83690739 C98.60128634 96.83742729 96.96041149 96.83690455 95.31953788 96.83539677 C91.89447987 96.83548603 88.46965944 96.84582058 85.04465079 96.864007 C80.68297746 96.88667428 76.32165097 96.88723644 71.95993495 96.88048935 C68.57531576 96.87712658 65.19077375 96.88382292 61.80616927 96.89361858 C60.19922581 96.89743254 58.59227371 96.89863484 56.98532653 96.89703274 C42.03478822 96.45685536 42.03478822 96.45685536 28.17575431 101.01268864 Z " fill="#ffffff" transform="translate(3248.7617456912994,64.79981136322021)"/>
<path d="M0 0 C11.30486534 10.30470299 17.97045962 21.59984596 18.94140625 37.08203125 C18.83491884 51.00145637 13.76515349 62.37940188 4.296875 72.33203125 C-4.68297901 81.09106918 -14.83737884 86.64612698 -27.6484375 86.90625 C-40.38293771 86.71731083 -51.20458119 81.83047163 -60.8984375 73.78125 C-84.24300751 54.57137656 -115.55646898 48.40297796 -145.0859375 50.65625 C-160.18647031 52.46392146 -173.73961798 58.2789805 -184.0859375 69.65625 C-189.74165912 76.90777689 -192.48264522 84.46760957 -191.890625 93.703125 C-190.26856924 105.32294261 -185.56805058 115.34210069 -176.4609375 122.92578125 C-163.07066369 132.68218141 -146.49980633 134.89661009 -130.46728516 136.80831909 C-126.31622278 137.30586992 -122.17021104 137.84308076 -118.0234375 138.375 C-117.1869165 138.4816246 -116.35039551 138.58824921 -115.48852539 138.69810486 C-88.87209734 142.10389658 -62.38674341 145.60256999 -38.0859375 157.65625 C-36.94769531 158.21183594 -35.80945313 158.76742187 -34.63671875 159.33984375 C-3.55112635 175.26891062 18.24840514 203.92403003 29.01928711 236.75439453 C40.44152967 273.76747738 36.13460306 314.35753228 18.1171875 348.46923828 C-3.86736779 388.43223468 -40.02396299 407.47004781 -82.22955322 420.11859131 C-89.42144345 422.20155567 -96.68686257 423.57291761 -104.0859375 424.65625 C-105.09358154 424.82326416 -105.09358154 424.82326416 -106.12158203 424.99365234 C-157.52454801 433.49177395 -209.06128558 417.39052244 -251.19921875 388.19189453 C-254.94084631 385.48118383 -258.5251028 382.60107532 -262.0859375 379.65625 C-263.03339844 378.89828125 -263.98085938 378.1403125 -264.95703125 377.359375 C-292.35078422 355.32279147 -292.35078422 355.32279147 -295.0859375 338.65625 C-296.36621948 325.55959501 -292.20504046 314.76920346 -284.0859375 304.65625 C-283.64765625 304.04394531 -283.209375 303.43164062 -282.7578125 302.80078125 C-274.56732753 292.01993206 -260.22105995 284.77211502 -247.0859375 282.65625 C-237.75807803 281.78221094 -230.53191121 283.14015315 -223.09765625 289.01953125 C-221.46743391 290.40893962 -219.85687591 291.81799776 -218.25219727 293.23681641 C-211.9802654 298.74854169 -205.15638555 303.24003763 -198.0859375 307.65625 C-196.42304688 308.70619141 -196.42304688 308.70619141 -194.7265625 309.77734375 C-169.01272159 325.25997331 -135.63907518 334.42296563 -105.8359375 327.15625 C-87.92737959 321.25598266 -74.7576269 312.6174094 -65.98828125 295.515625 C-62.29624957 286.51737105 -62.78353008 273.9989589 -66.05078125 264.95703125 C-71.80946566 252.15754024 -80.02389875 244.78472942 -93.0859375 239.65625 C-108.47961204 234.64866913 -123.95752866 232.56150478 -140.0859375 231.71875 C-183.38716849 229.20119143 -224.19017455 218.05538179 -254.60205078 185.00878906 C-266.83802424 171.15629837 -276.02761258 155.08787201 -282.0859375 137.65625 C-282.31506836 137.02686523 -282.54419922 136.39748047 -282.78027344 135.74902344 C-294.49302737 103.40492763 -291.2779058 63.73529596 -277.0859375 32.65625 C-263.82358574 4.888201 -240.83723497 -14.86797989 -213.0859375 -27.34375 C-212.37276367 -27.6732666 -211.65958984 -28.0027832 -210.92480469 -28.34228516 C-140.53587188 -60.69025406 -58.48236394 -51.28537123 0 0 Z " fill="#ffffff" transform="translate(295.0859375,100.34375)"/>
<path d="M0 0 C10.15123305 9.10221851 17.35756885 19.24972001 18.3515625 33.140625 C19.02495105 48.11465995 15.20120809 60.68918682 5 72 C-5.24486886 81.93854388 -16.30303404 86.2900416 -30.36352539 86.31689453 C-43.45332982 86.09185491 -53.57919803 79.50166794 -63.625 71.625 C-78.9514076 59.96829563 -97.18291597 54.13618067 -116 51 C-116.79664062 50.86722656 -117.59328125 50.73445313 -118.4140625 50.59765625 C-140.14971936 47.62630241 -162.39325745 51.20048887 -180.09765625 64.5859375 C-186.99819008 70.80400095 -191.59014182 80.26198549 -192.25 89.5 C-192.08083326 100.83417149 -187.84116693 111.77770014 -180.1484375 120.0546875 C-162.62317754 135.92301379 -135.30480739 136.25653286 -113.1484375 138.9609375 C-71.50747719 144.07600356 -35.29261428 152.57396272 -4 182 C-3.40960937 182.5259375 -2.81921875 183.051875 -2.2109375 183.59375 C22.75679395 206.78652424 33.45681748 242.55093351 35.1875 275.578125 C35.889692 313.32094491 22.47796579 349.7844098 -3.40136719 377.37744141 C-28.11001212 402.97358693 -61.81766442 415.7258729 -96 423 C-96.79132324 423.17789062 -97.58264648 423.35578125 -98.39794922 423.5390625 C-121.62455989 428.60997945 -149.8766143 428.49393577 -173 423 C-173.94633301 422.77957031 -174.89266602 422.55914063 -175.86767578 422.33203125 C-204.82417799 415.37695082 -231.00882583 402.50049898 -255 385 C-255.84788086 384.3817334 -255.84788086 384.3817334 -256.71289062 383.75097656 C-260.54988427 380.92671256 -264.29774234 377.9987433 -268 375 C-268.62326172 374.49710449 -269.24652344 373.99420898 -269.88867188 373.47607422 C-282.03476112 363.58405357 -293.55206309 353.06159758 -295.375 336.6171875 C-295.92400266 321.00492436 -289.81196694 310.05012367 -279.4375 298.875 C-267.61104513 287.44456037 -254.15705734 282.74490679 -237.9296875 282.50390625 C-230.15712533 283.48513428 -224.77639112 287.68170299 -218.9375 292.625 C-190.16788394 316.22824135 -154.68658377 332.04310394 -116.81835938 328.81396484 C-99.72695823 326.81779977 -83.27019651 319.51514468 -72.30859375 305.9140625 C-64.95780478 295.16216221 -62.42380253 283.94726304 -64.46484375 271.06640625 C-67.08621708 260.13109148 -72.77228119 251.46359124 -82 245 C-100.4217606 234.13193203 -122.40441403 232.43182997 -143.25241089 231.18624878 C-182.79379428 228.81101273 -218.52490529 218.88689626 -248 191 C-248.82371094 190.24074219 -249.64742187 189.48148438 -250.49609375 188.69921875 C-272.6705565 167.56256237 -287.949915 135.30423327 -289.12670898 104.70532227 C-289.98519623 64.92143235 -283.02592089 30.77754094 -255 1 C-254.4225 0.34644531 -253.845 -0.30710938 -253.25 -0.98046875 C-191.5565782 -67.76910619 -74.02475005 -57.70546263 0 0 Z " fill="#ffffff" transform="translate(2255,104)"/>
<path d="M0 0 C0.82130402 -0.00067474 1.64260803 -0.00134949 2.48880005 -0.00204468 C15.96202795 0.01548685 29.04965853 0.70756265 42.3125 3.25 C43.21919434 3.42160645 44.12588867 3.59321289 45.06005859 3.77001953 C76.87754579 9.98901834 106.16512314 22.28889873 132.375 41.375 C133.14851807 41.93662842 133.92203613 42.49825684 134.71899414 43.0769043 C146.24137729 51.67094697 156.91285861 62.50625742 159.3125 77.25 C160.41379465 89.81406572 157.8150965 100.07805864 150.3125 110.25 C140.15794015 122.10575554 127.87846543 129.18110586 112.3125 131.25 C95.99292839 132.21215161 84.30796554 128.16371957 70.3125 120.25 C37.29819813 101.7437399 0.96698578 96.43037176 -35.76953125 106.7109375 C-53.83225655 112.15449855 -70.41755912 120.87803155 -84.6875 133.25 C-85.54472656 133.95125 -86.40195313 134.6525 -87.28515625 135.375 C-111.90955689 156.35002903 -125.93927297 188.35298863 -128.6875 220.25 C-130.34541026 256.56368622 -122.80546502 289.6222088 -98.25 317.375 C-96.73653526 319.00686504 -95.21584475 320.63206263 -93.6875 322.25 C-93.00171875 323.00023437 -92.3159375 323.75046875 -91.609375 324.5234375 C-71.4714555 345.7801303 -39.48014013 359.91306827 -10.27270508 361.42700195 C27.46978858 362.0756405 58.24365263 354.45592249 87.76953125 330.234375 C100.77351471 319.75831127 113.89891222 316.81178858 130.3125 318.25 C134.32353727 319.07759972 137.68981941 320.35939522 141.3125 322.25 C142.15941406 322.68570312 143.00632812 323.12140625 143.87890625 323.5703125 C157.00528959 330.90505495 165.88205038 341.21572033 170.59375 355.57421875 C173.57474676 366.67195127 172.64743783 378.69314436 166.94140625 388.8046875 C158.82445062 400.98985351 147.32321002 408.29699364 135.3125 416.25 C134.55952637 416.75595703 133.80655273 417.26191406 133.03076172 417.78320312 C81.80123263 452.20648155 25.94282915 468.66460074 -35.75 457.0625 C-48.59401133 454.49911062 -61.17165336 451.09011338 -73.6875 447.25 C-74.57131348 446.98493652 -75.45512695 446.71987305 -76.36572266 446.44677734 C-94.87587281 440.81570935 -112.04205728 431.60556326 -127.6875 420.25 C-128.28691406 419.81751953 -128.88632813 419.38503906 -129.50390625 418.93945312 C-149.62535906 404.35840034 -167.84961814 388.27464999 -182.6875 368.25 C-183.53773745 367.13019089 -184.3879977 366.0103991 -185.23828125 364.890625 C-220.29479569 318.0128856 -230.42820078 257.03671586 -222.72265625 199.92578125 C-219.57672338 178.82272607 -214.49015626 158.45862353 -207.6875 138.25 C-207.42469238 137.45255371 -207.16188477 136.65510742 -206.89111328 135.83349609 C-190.02568984 85.14709658 -145.53657118 45.36020553 -99.109375 21.85546875 C-68.32749165 6.75731958 -34.11209723 0.02522547 0 0 Z " fill="#ffffff" transform="translate(2546.6875,65.75)"/>
<path d="M0 0 C7.36584447 5.08015358 11.69578283 11.59385867 14.87207031 19.82910156 C15.22437714 20.70281277 15.57668396 21.57652397 15.93966675 22.47671127 C17.10561394 25.37953914 18.24802499 28.29103675 19.390625 31.203125 C20.22488033 33.29386052 21.06059181 35.38401549 21.89764404 37.47363281 C24.16372127 43.14239819 26.40954888 48.81899269 28.65197754 54.49714661 C31.03196327 60.51299566 33.43103448 66.52122456 35.828125 72.53027344 C39.83637878 82.58516221 43.83372302 92.64430954 47.82226562 102.70703125 C53.5281767 117.10225139 59.25334327 131.48976274 64.984375 145.875 C66.79745372 150.42655903 68.61041411 154.97816519 70.42333984 159.52978516 C70.86847364 160.64729975 71.31360744 161.76481434 71.77223015 162.91619301 C74.92953314 170.8433866 78.08377554 178.77179391 81.23681641 186.70068359 C92.247353 214.38576439 103.3073983 242.05027054 114.4375 269.6875 C114.78227386 270.54371696 115.12704773 271.39993393 115.48226929 272.28209686 C119.36708256 281.92960725 123.25384196 291.57633285 127.14160156 301.22265625 C134.80253809 320.23100394 142.46159376 339.24010615 150.11232185 358.25256538 C152.88001084 365.13008218 155.65013625 372.00661053 158.42219734 378.88236618 C160.13950148 383.14351899 161.85455913 387.40557331 163.56900406 391.6678772 C164.36746928 393.65165432 165.16685176 395.63506253 165.96722031 397.61807251 C167.06852375 400.34709037 168.1664862 403.07742998 169.26367188 405.80810547 C169.5813685 406.59306334 169.89906513 407.3780212 170.22638893 408.18676567 C174.65433028 419.23552711 179.37812014 431.5391026 174.375 443.3125 C170.87814974 449.00418181 164.18615904 454.04704939 157.94140625 456.32421875 C152.31412632 457.61487928 146.55990837 457.6668624 140.8125 457.8125 C139.71325195 457.84504883 138.61400391 457.87759766 137.48144531 457.91113281 C133.73763801 458.00999569 129.99472626 458.0723319 126.25 458.125 C125.02450439 458.15489014 123.79900879 458.18478027 122.53637695 458.21557617 C111.38333261 458.28710456 111.38333261 458.28710456 106.8125 453.8125 C101.62738705 448.09532038 98.22589813 442.1672393 95.3125 435.0625 C94.8985498 434.08265137 94.48459961 433.10280273 94.05810547 432.09326172 C92.62335978 428.67410518 91.21506768 425.244979 89.8125 421.8125 C89.55359985 421.18001343 89.29469971 420.54752686 89.0279541 419.89587402 C85.67751426 411.70877748 82.35883231 403.50898867 79.05078125 395.3046875 C74.44249934 383.87688026 69.7849515 372.46931443 65.125 361.0625 C64.27292302 358.97608492 63.4208724 356.88965907 62.56884766 354.80322266 C60.84376866 350.57902744 59.11848034 346.35491779 57.39306641 342.13085938 C53.61274049 332.8756094 49.83518331 323.61922942 46.0574646 314.36291504 C43.97592765 309.26272856 41.89420422 304.1626182 39.8125 299.0625 C38.97916578 297.0208337 38.14583244 294.97916703 37.3125 292.9375 C36.69375 291.4215625 36.69375 291.4215625 36.0625 289.875 C34.8125 286.8125 33.5625 283.75 32.3125 280.6875 C31.90008057 279.67709152 31.48766113 278.66668304 31.06274414 277.62565613 C30.22854292 275.58182444 29.39439587 273.53797064 28.56030273 271.49409485 C26.49068944 266.42287119 24.42016827 261.35202218 22.34765625 256.28198242 C18.43272155 246.7019758 14.52766021 237.11823931 10.65234375 227.52212524 C8.81815762 222.98180409 6.97909679 218.44346479 5.13964844 213.90527344 C4.26285508 211.73812929 3.38846012 209.57001307 2.51660156 207.40087891 C1.30876635 204.39628341 0.09276068 201.39511492 -1.125 198.39453125 C-1.47828369 197.50937332 -1.83156738 196.62421539 -2.19555664 195.7122345 C-4.12264265 190.9892294 -6.26945238 186.98907382 -9.1875 182.8125 C-9.5175 181.8225 -9.8475 180.8325 -10.1875 179.8125 C-11.93617483 178.72818906 -11.93617483 178.72818906 -14.1875 177.8125 C-15.115625 177.255625 -16.04375 176.69875 -17 176.125 C-20.997483 174.47897759 -23.03366718 174.69986621 -27.1875 175.8125 C-36.64145188 180.25006925 -40.31231608 191.8811032 -43.953125 201.01953125 C-44.38350571 202.08033905 -44.81388641 203.14114685 -45.25730896 204.23410034 C-46.65880797 207.69452237 -48.04827177 211.15963564 -49.4375 214.625 C-50.42617847 217.07359046 -51.41552719 219.52191038 -52.40551758 221.9699707 C-55.34547087 229.24576065 -58.26794511 236.52849977 -61.1875 243.8125 C-61.96987034 245.76270293 -62.75225831 247.71289878 -63.53466797 249.66308594 C-66.37068309 256.73547285 -69.20134683 263.80998303 -72.0246582 270.88745117 C-78.68666748 287.58619172 -85.40205845 304.26322768 -92.125 320.9375 C-92.69678115 322.35575205 -93.26855849 323.77400563 -93.84033203 325.19226074 C-96.75447616 332.42049278 -99.66910494 339.6485293 -102.58398438 346.87646484 C-107.79636486 359.80152976 -113.00670006 372.7274191 -118.21632481 385.65359497 C-119.95320277 389.96311614 -121.69033884 394.2725331 -123.42778492 398.58182526 C-124.24407273 400.60662278 -125.06010357 402.63152373 -125.87611389 404.65643311 C-126.90905253 407.21945603 -127.94327942 409.78195331 -128.97850037 412.34405518 C-131.19778207 417.84279306 -133.40387254 423.34509182 -135.55322266 428.87158203 C-135.91124466 429.78649918 -136.26926666 430.70141632 -136.63813782 431.64405823 C-137.27610882 433.27867817 -137.90789216 434.91573776 -138.53117371 436.55601501 C-141.08351545 443.07914417 -144.25665109 449.77234095 -149.8125 454.25 C-150.38226562 454.72308594 -150.95203125 455.19617188 -151.5390625 455.68359375 C-157.30706538 459.63371894 -166.61839324 458.11964197 -173.3815918 458.16259766 C-175.28145656 458.1790915 -177.18126097 458.20629388 -179.08081055 458.24462891 C-200.36540988 458.67147151 -200.36540988 458.67147151 -209.84375 450.53125 C-210.75640625 449.43296875 -210.75640625 449.43296875 -211.6875 448.3125 C-212.63109375 447.21421875 -212.63109375 447.21421875 -213.59375 446.09375 C-216.97307779 441.25667297 -217.60153568 436.80796432 -217.6875 431 C-217.72875 430.34580078 -217.77 429.69160156 -217.8125 429.01757812 C-217.92433725 421.50351258 -214.82272473 414.8164192 -212.05914307 407.97421265 C-211.21437931 405.87916186 -210.38788878 403.77794047 -209.56787109 401.6730957 C-207.7709235 397.0668225 -205.94831296 392.47088789 -204.125 387.875 C-203.40145088 386.04812702 -202.67798445 384.22122128 -201.95458984 382.39428711 C-191.91113675 357.03983284 -181.83272878 331.69919598 -171.76111412 306.35591888 C-167.30763144 295.14947623 -162.85582595 283.94236942 -158.40625 272.734375 C-158.13314373 272.04645308 -157.86003746 271.35853115 -157.57865524 270.64976311 C-156.20530164 267.19041929 -154.83198283 263.73106165 -153.4586792 260.271698 C-145.82731599 241.04830959 -138.19382683 221.82576853 -130.5546875 202.60546875 C-130.07130134 201.38925339 -130.07130134 201.38925339 -129.5781498 200.14846802 C-126.29550989 191.88933641 -123.01261919 183.63030452 -119.72947788 175.37137222 C-112.62170078 157.49116171 -105.5168893 139.60978782 -98.42381287 121.72373962 C-95.64689254 114.72199348 -92.86724642 107.721354 -90.08081055 100.72338867 C-88.98862249 97.97971346 -87.89661485 95.23596648 -86.8046875 92.4921875 C-86.40114894 91.47841128 -86.40114894 91.47841128 -85.98945808 90.44415474 C-82.53749516 81.76898862 -79.11330031 73.08347753 -75.71877193 64.38567257 C-73.34736528 58.30979574 -70.96393262 52.23873021 -68.57230473 46.17078495 C-66.88411249 41.88474672 -65.21226649 37.59283075 -63.55296326 33.29553223 C-62.52692255 30.65056584 -61.48470862 28.01219386 -60.43799973 25.37534714 C-59.73515134 23.5909238 -59.05156157 21.79895137 -58.36880493 20.00674438 C-54.27039772 9.76790819 -48.9189743 2.49316777 -38.77734375 -2.21484375 C-25.84980019 -7.06998455 -12.12916162 -6.85158748 0 0 Z " fill="#ffffff" transform="translate(2961.1875,63.1875)"/>
<path d="M0 0 C1.1007486 0.0141243 2.20149719 0.0282486 3.33560181 0.0428009 C5.65705141 0.07581114 7.9784558 0.11214904 10.29980469 0.15161133 C13.83270871 0.20673706 17.36523063 0.23537669 20.8984375 0.26367188 C23.16148468 0.29913809 25.4245076 0.33619527 27.6875 0.375 C29.25822769 0.38154854 29.25822769 0.38154854 30.86068726 0.38822937 C38.96112709 0.57451733 45.38776064 2.06502512 51.3515625 7.76953125 C58.06370014 18.03515353 57.62495186 29.35065374 57.60786438 41.23439026 C57.61103795 43.20368867 57.61103795 43.20368867 57.61427563 45.21277088 C57.61884947 48.08259386 57.62029806 50.95239535 57.61931038 53.82222176 C57.6177099 58.49272628 57.62293604 63.16320964 57.62893677 67.83370972 C57.63703166 74.61396338 57.64198723 81.3942133 57.64522743 88.1744709 C57.650736 98.89318033 57.66764441 109.61185817 57.68656921 120.33055115 C57.69292507 124.00083632 57.69923359 127.67112157 57.70554638 131.34140682 C57.70713014 132.25850712 57.7087139 133.17560743 57.71034566 134.12049865 C57.72826498 144.54867327 57.74450114 154.9768501 57.75952148 165.4050293 C57.76089736 166.35782864 57.76227323 167.31062799 57.76369079 168.29230004 C57.78563755 183.74455329 57.79638215 199.19679834 57.80389223 214.64906443 C57.81196321 230.52383895 57.83524954 246.39854326 57.8718459 262.2732777 C57.8938629 272.06023124 57.90353803 281.84704041 57.89734557 291.63401746 C57.89417099 298.33861282 57.90550094 305.04308481 57.92823998 311.74764199 C57.94090514 315.61501758 57.94708073 319.48211828 57.93582344 323.34950447 C57.92377136 327.54380072 57.94257345 331.73739884 57.96430969 335.93165588 C57.95586716 337.15120848 57.94742462 338.37076107 57.93872625 339.6272698 C58.00518496 346.55207887 58.6820673 351.16038664 62.4765625 357.01953125 C67.96264697 361.38600665 72.23378985 362.16752855 79.04563904 362.15756226 C80.21284685 362.16179418 80.21284685 362.16179418 81.40363461 362.16611159 C84.01966941 362.17446621 86.63566193 362.17579661 89.25170898 362.17724609 C91.12428405 362.1819139 92.99685799 362.18705741 94.86943054 362.19264221 C98.90781485 362.20393087 102.94619175 362.21236156 106.98458672 362.21876144 C113.37729006 362.22944121 119.76994046 362.24968811 126.16261292 362.2718811 C144.34332847 362.33379935 162.52404156 362.38775163 180.70483398 362.42089844 C190.74166836 362.43927779 200.77841462 362.46825894 210.81518418 362.50890315 C216.12410527 362.52992455 221.43291552 362.54542345 226.74188042 362.54771042 C231.74304495 362.54986717 236.74397908 362.56584091 241.74507332 362.59210014 C243.57350008 362.59925669 245.40195487 362.60141194 247.23039246 362.59799767 C272.55698046 362.55828493 272.55698046 362.55828493 281.79296875 370.27734375 C287.21295564 375.88596128 290.70462586 382.74717448 290.76708984 390.58496094 C290.77984955 391.67669617 290.79260925 392.7684314 290.80575562 393.89324951 C290.80909409 395.6495871 290.80909409 395.6495871 290.8125 397.44140625 C290.8191568 398.65596497 290.8258136 399.87052368 290.83267212 401.12188721 C290.84279075 403.69061775 290.84748938 406.25937454 290.84716797 408.828125 C290.85153106 412.7413312 290.88783396 416.65340025 290.92578125 420.56640625 C290.93165167 423.06640241 290.93561955 425.56640391 290.9375 428.06640625 C290.95905655 429.81059845 290.95905655 429.81059845 290.98104858 431.59002686 C290.92792667 441.12397603 288.69932366 448.42086545 282.17578125 455.51953125 C274.59115447 462.21492592 264.99893616 463.32069679 255.31103516 463.26245117 C254.30218986 463.26432403 253.29334455 463.26619688 252.25392818 463.26812649 C248.88275138 463.2717864 245.51178358 463.26098239 242.140625 463.25 C239.72313958 463.24918332 237.30565379 463.24915191 234.88816833 463.24984741 C229.0096286 463.24890111 223.13115597 463.23811646 217.25264174 463.22236586 C212.46317802 463.20971785 207.67372375 463.20138279 202.88424683 463.19577026 C162.06424636 463.14654499 121.24521059 462.93794402 80.42650604 462.61291885 C76.58221361 462.58237411 72.73791505 462.55270242 68.89361572 462.52304077 C53.0872944 462.39867789 37.28188987 462.23626973 21.4765625 462.01953125 C20.5223214 462.00715172 19.56808029 461.99477219 18.58492279 461.98201752 C13.35945395 461.91330887 8.13471737 461.82980575 2.90997124 461.71861076 C1.40089929 461.68810989 -0.10827138 461.66207247 -1.61750603 461.64111519 C-12.51434974 461.48255212 -21.58808445 460.84667021 -29.734375 453.08984375 C-39.5359867 441.74736732 -38.82033534 426.47485385 -38.77740479 412.34432983 C-38.77971294 410.67880417 -38.78289184 409.01327952 -38.78685927 407.34775698 C-38.79516698 402.79931302 -38.79110041 398.25095357 -38.78488684 393.7025094 C-38.78034688 388.78632201 -38.7873537 383.87014878 -38.79284668 378.95396423 C-38.80172547 369.33487732 -38.79982553 359.71582168 -38.7940214 350.09673356 C-38.78949948 342.2781667 -38.7888943 334.45960859 -38.79106903 326.6410408 C-38.7913755 325.52708333 -38.79168196 324.41312586 -38.79199772 323.2654121 C-38.79263718 321.00225682 -38.79328561 318.73910154 -38.7939429 316.47594626 C-38.79964162 295.2705361 -38.79309521 274.06514325 -38.78234217 252.85973592 C-38.77340461 234.67145591 -38.77496127 216.48320143 -38.78417969 198.29492188 C-38.79488616 177.16082801 -38.79909493 156.0267493 -38.79295516 134.89265311 C-38.79231808 132.63856546 -38.79168933 130.38447782 -38.79106903 128.13039017 C-38.7906062 126.46690597 -38.7906062 126.46690597 -38.79013403 124.76981603 C-38.7884084 116.96120884 -38.79131928 109.15261128 -38.79602814 101.34400558 C-38.80164103 91.82731173 -38.80011178 82.31065087 -38.78946665 72.79396079 C-38.78421586 67.9400814 -38.78214317 63.08625698 -38.78876495 58.23237801 C-38.79473857 53.78634565 -38.791426 49.34041907 -38.78080985 44.89439626 C-38.77858185 43.28893595 -38.7796986 41.68346664 -38.78456143 40.07801215 C-38.84853232 17.19719366 -38.84853232 17.19719366 -31.5234375 8.01953125 C-23.06890345 -0.4350028 -11.16255906 -0.15383395 0 0 Z " fill="#ffffff" transform="translate(1617.5234375,61.98046875)"/>
<path d="M0 0 C1.55074219 0.00616333 1.55074219 0.00616333 3.1328125 0.01245117 C11.54850019 0.07068473 19.96217055 0.21222571 28.375 0.4375 C29.54885254 0.45989746 30.72270508 0.48229492 31.93212891 0.50537109 C39.1016355 0.73424022 45.48987756 1.11002286 51.36328125 5.66796875 C59.72965836 16.0580713 59.52467036 27.41154137 59.50630188 40.25756836 C59.50947545 42.23171046 59.50947545 42.23171046 59.51271313 44.24573421 C59.51729183 47.12578229 59.5187346 50.00580894 59.51774788 52.88586044 C59.51614906 57.57277006 59.52137005 62.25965854 59.52737427 66.94656372 C59.53547316 73.75084425 59.54042614 80.55512106 59.54366493 87.35940552 C59.54917098 98.11584036 59.56607709 108.87224367 59.58500671 119.62866211 C59.59136277 123.31117243 59.59767126 126.99368284 59.60398388 130.67619324 C59.60556764 131.59638215 59.6071514 132.51657107 59.60878316 133.46464449 C59.62670642 143.93052897 59.64294039 154.39641565 59.65795898 164.86230469 C59.65933486 165.81866015 59.66071073 166.77501561 59.66212829 167.76035154 C59.68407138 183.26763385 59.69481854 198.77490799 59.70232973 214.28220308 C59.71040074 230.21118641 59.73368787 246.14009978 59.7702834 262.06904316 C59.79230211 271.8904783 59.801975 281.71176958 59.79578307 291.53322816 C59.79260847 298.26212821 59.80393861 304.99090532 59.82667748 311.71976733 C59.83934296 315.60131252 59.84551788 319.4825838 59.83426094 323.36413956 C59.82220923 327.57381515 59.84101064 331.78279512 59.86274719 335.99243164 C59.85430466 337.2165573 59.84586212 338.44068296 59.83716375 339.70190334 C59.90348271 346.63725646 60.57222704 351.2579927 64.375 357.125 C69.8729565 361.50092456 74.14942588 362.27259409 80.97531128 362.25630188 C81.7568278 362.25841759 82.53834433 362.26053331 83.34354317 362.26271313 C85.97106748 362.26872036 88.59854386 362.26771244 91.22607422 362.2668457 C93.10687848 362.26987689 94.987682 362.27339823 96.8684845 362.27737427 C100.92487546 362.28526952 104.9812576 362.29041067 109.03765488 362.29366493 C115.46003661 362.29957546 121.88236292 362.31611837 128.30471802 362.33500671 C130.50421711 362.34134451 132.70371624 362.34767013 134.90321541 362.35398388 C136.55580655 362.3587326 136.55580655 362.3587326 138.24178338 362.36357725 C153.19470757 362.40562469 168.1476066 362.43860229 183.10058594 362.45092773 C193.18395903 362.4593247 203.26719549 362.48187952 213.35050023 362.5202834 C218.68351923 362.53999587 224.01633419 362.55246478 229.34939194 362.54744911 C234.37441628 362.54278111 239.39905501 362.55672519 244.42400169 362.58446121 C246.26007128 362.59133801 248.09618103 362.59153773 249.93224907 362.58426094 C262.74868812 362.53863031 276.03263491 362.63690422 285.7890625 372.1875 C290.20235376 377.57910706 292.48090036 383.52219045 292.55200195 390.46337891 C292.56483719 391.5552652 292.57767242 392.64715149 292.59089661 393.77212524 C292.60197701 395.54394669 292.60197701 395.54394669 292.61328125 397.3515625 C292.621353 398.56895111 292.62942474 399.78633972 292.63774109 401.0406189 C292.65158333 403.62130306 292.66230485 406.20200553 292.67016602 408.78271484 C292.68734085 412.71357385 292.73122341 416.6435836 292.77539062 420.57421875 C292.78552101 423.08332716 292.79403603 425.59244271 292.80078125 428.1015625 C292.82704338 429.85516586 292.82704338 429.85516586 292.85383606 431.64419556 C292.82916013 441.01331982 290.68932659 448.52541982 284.28125 455.5546875 C276.40745025 462.04089139 267.23603845 463.27803311 257.44628906 463.25439453 C256.54496561 463.25612136 255.64364216 463.25784819 254.71500587 463.25962734 C251.6901941 463.26400009 248.6654376 463.26101191 245.640625 463.2578125 C243.46786481 463.25887302 241.29510476 463.26025969 239.12234497 463.26194763 C233.1975582 463.26478099 227.27279795 463.26030334 221.34801483 463.25377274 C217.62257351 463.24999754 213.89713473 463.24793137 210.17169189 463.24630737 C171.32098647 463.226428 132.47233528 463.0344887 93.62297058 462.71883392 C89.80712374 462.68796215 85.99127032 462.65804273 82.17541504 462.62823486 C68.11696596 462.51657822 54.05915502 462.37728442 40.00134277 462.20294189 C35.54606292 462.1484233 31.09083459 462.10364944 26.63537598 462.06658936 C21.25362427 462.02137339 15.87241649 461.95726474 10.49104691 461.87901115 C8.51309276 461.85331146 6.5350415 461.834097 4.55695724 461.82202339 C-18.85728287 461.66902611 -18.85728287 461.66902611 -28.09375 452.93359375 C-37.83382799 441.42936898 -36.92237003 425.58893783 -36.87896729 411.36750793 C-36.88127605 409.70524401 -36.88445535 408.04298111 -36.88842177 406.38072032 C-36.89672103 401.84593715 -36.89266683 397.31123887 -36.88644934 392.77645552 C-36.88190591 387.87323743 -36.88891788 382.97003348 -36.89440918 378.06681824 C-36.90328409 368.47527398 -36.90138983 358.88376109 -36.8955839 349.29221562 C-36.89106071 341.49607924 -36.89045734 333.69995163 -36.89263153 325.90381432 C-36.892938 324.7927677 -36.89324446 323.68172107 -36.89356022 322.53700637 C-36.89419969 320.27972963 -36.89484811 318.02245288 -36.8955054 315.76517614 C-36.90120291 294.61937316 -36.89465947 273.47358755 -36.88390467 252.32778742 C-36.87496598 234.19125389 -36.87652494 216.05474596 -36.88574219 197.91821289 C-36.89644865 176.8416105 -36.90065754 155.7650233 -36.89451766 134.68841857 C-36.89388058 132.44052518 -36.89325184 130.19263178 -36.89263153 127.94473839 C-36.89232298 126.83880802 -36.89201443 125.73287766 -36.89169653 124.59343425 C-36.889971 116.80685683 -36.89288156 109.02028907 -36.89759064 101.23371315 C-36.90320347 91.74449186 -36.90167437 82.25530365 -36.89102915 72.76608614 C-36.88577846 67.9263766 -36.88370551 63.0867222 -36.89032745 58.24701309 C-36.89630121 53.81397349 -36.89298827 49.38103996 -36.88237235 44.94800993 C-36.88014442 43.34729012 -36.88126093 41.74656128 -36.88612393 40.1458473 C-36.95018066 17.30276995 -36.95018066 17.30276995 -29.625 8.125 C-21.65968144 0.15968144 -10.60423118 -0.05118207 0 0 Z " fill="#ffffff" transform="translate(1244.625,61.875)"/>
<path d="M0 0 C5.8792612 5.01678502 11.46078867 10.21072216 16.66186523 15.93920898 C17.4778418 16.82866211 18.29381836 17.71811523 19.13452148 18.63452148 C38.57973023 41.74689321 48.42119295 74.86439665 46.40014648 104.81811523 C42.27868866 140.47439713 21.0399968 172.5525364 -6.29516602 195.34155273 C-11.86681227 199.69872925 -17.50469214 203.96325557 -23.30688477 208.00952148 C-38.7408688 218.82179052 -42.55417565 230.62626343 -46.71313477 248.37670898 C-47.10561299 250.02359721 -47.49876665 251.67032461 -47.89257812 253.31689453 C-49.05420645 258.18795287 -50.19875488 263.06290456 -51.33813477 267.93920898 C-51.50649841 268.65878784 -51.67486206 269.3783667 -51.84832764 270.11975098 C-53.70372038 278.05390759 -55.52627331 285.99489337 -57.33813477 293.93920898 C-72.18813477 293.93920898 -87.03813477 293.93920898 -102.33813477 293.93920898 C-103.16958008 289.74717773 -104.00102539 285.55514648 -104.85766602 281.23608398 C-105.52871579 277.86149735 -106.20035876 274.48702997 -106.87239838 271.11264038 C-107.57808279 267.5684777 -108.28275799 264.02412166 -108.98486328 260.47924805 C-109.66308097 257.05519646 -110.34424226 253.63174174 -111.02731895 250.20865631 C-111.40974638 248.28840329 -111.78924211 246.36756715 -112.1686554 244.44671631 C-113.3134372 238.72172655 -114.50577561 233.01081675 -115.84082031 227.3269043 C-116.05957321 226.39436829 -116.27832611 225.46183228 -116.50370789 224.5010376 C-119.82665185 214.2990497 -128.92662101 209.49636017 -137.83813477 204.81420898 C-146.40036363 200.20223016 -153.9284762 195.24294836 -161.33813477 188.93920898 C-162.27786133 188.1619043 -163.21758789 187.38459961 -164.18579102 186.58374023 C-184.70527161 168.89254248 -200.48997714 141.60489221 -204.02563477 114.62670898 C-204.15083496 113.67175537 -204.27603516 112.71680176 -204.4050293 111.73291016 C-208.16711609 80.72768468 -202.74055051 48.66682289 -183.39282227 23.44702148 C-179.85494808 19.1289317 -176.17372894 14.99451805 -172.33813477 10.93920898 C-171.14124023 9.62823242 -171.14124023 9.62823242 -169.92016602 8.29077148 C-125.47359042 -38.64373649 -49.03997671 -40.81246706 0 0 Z M-95.90234375 10.28857422 C-98.57932554 13.26252252 -100.33813477 15.90756093 -100.33813477 19.93920898 C-99.15253027 23.2325548 -98.10258681 25.32159229 -95.36547852 27.53295898 C-91.02691298 29.54829265 -86.74962924 29.81985152 -82.02563477 30.31420898 C-62.84212943 32.6463338 -43.81599498 38.46072173 -30.92407227 53.81420898 C-22.16839661 65.76175303 -17.95098661 78.14043199 -15.89355469 92.70678711 C-14.97425424 98.59120088 -13.63277766 101.75176466 -9.33813477 105.93920898 C-5.63325645 107.79164814 -1.38199289 107.39772518 2.66186523 106.93920898 C6.78370996 104.62067132 8.33754929 102.41108515 9.66186523 97.93920898 C9.61251165 95.28282503 9.44836853 92.86742538 9.09936523 90.25170898 C9.00349121 89.51057861 8.90761719 88.76944824 8.80883789 88.00585938 C5.408452 64.09516951 -4.68626329 41.83959871 -23.33813477 25.93920898 C-39.3826343 14.35495642 -57.42300152 8.76136794 -76.83813477 6.50170898 C-77.66265137 6.39632812 -78.48716797 6.29094727 -79.33666992 6.18237305 C-85.43564833 5.57630949 -91.03369245 6.08863108 -95.90234375 10.28857422 Z " fill="#ffffff" transform="translate(1052.338134765625,90.060791015625)"/>
<path d="M0 0 C0.75660919 -0.00067474 1.51321838 -0.00134949 2.29275513 -0.00204468 C14.31865817 0.01496194 25.91366838 0.60926096 37.6875 3.25 C38.46512695 3.42160645 39.24275391 3.59321289 40.04394531 3.77001953 C85.25787549 14.05761365 127.9298432 38.94520259 153.6875 78.25 C154.31664307 79.19335205 154.31664307 79.19335205 154.95849609 80.15576172 C167.93023888 99.87978213 175.20894719 122.22018388 179.6875 145.25 C179.86394043 146.12027832 180.04038086 146.99055664 180.22216797 147.88720703 C184.99896383 172.34875728 185.12365042 200.90057624 179.6875 225.25 C179.49414062 226.12543457 179.30078125 227.00086914 179.1015625 227.90283203 C172.56170099 256.39866376 159.65105689 281.44827027 139.80859375 302.94140625 C137.85751655 305.06495436 135.98781718 307.23675681 134.125 309.4375 C125.21609539 319.59890368 113.51911265 328.56316431 102.1875 335.875 C91.76038685 343.13240932 88.99043859 353.3308447 86.6875 365.25 C85.13297977 374.58337392 83.97442267 383.98161131 82.76025391 393.36401367 C82.34018246 396.58400263 81.90509408 399.80171303 81.46875 403.01953125 C81.3488269 403.98437943 81.22890381 404.9492276 81.10534668 405.9433136 C79.67167697 416.4309761 76.95101439 426.14539312 68.6875 433.25 C60.50480238 438.64607028 52.15286876 439.55019382 42.58666992 439.55639648 C41.48980362 439.56472 40.39293732 439.57304352 39.26283264 439.58161926 C35.64784158 439.60565414 32.03303117 439.61448332 28.41796875 439.62109375 C25.89602099 439.63006463 23.37407377 439.63918656 20.85212708 439.64845276 C15.56897239 439.66492733 10.28586157 439.67267292 5.00268555 439.67553711 C-1.08286419 439.67916972 -7.16790882 439.70905598 -13.2533043 439.75094169 C-19.13141259 439.78996589 -25.00932228 439.80113255 -30.88754845 439.80226326 C-33.37733386 439.80645853 -35.86711997 439.81886475 -38.35682106 439.83978081 C-41.84615187 439.86676318 -45.33410299 439.8618481 -48.82348633 439.84936523 C-50.35203751 439.87161667 -50.35203751 439.87161667 -51.91146851 439.89431763 C-59.68589034 439.81548174 -66.33408369 437.86410264 -72.19413471 432.54067135 C-84.15244878 419.70307117 -84.20040624 400.83189896 -85.8125 384.375 C-86.77858269 358.8573994 -86.77858269 358.8573994 -99.3125 338.25 C-103.71450445 334.89987117 -108.22973475 331.71320253 -112.75390625 328.53125 C-118.93763711 324.14471027 -124.61840758 319.24439462 -130.3125 314.25 C-131.46492187 313.28126953 -131.46492187 313.28126953 -132.640625 312.29296875 C-137.35765577 308.30509732 -141.3463279 303.97513096 -145.3125 299.25 C-146.06273437 298.41082031 -146.81296875 297.57164062 -147.5859375 296.70703125 C-179.97443722 259.66970901 -187.71586188 211.30613234 -185.03515625 163.6015625 C-182.24957269 124.63244692 -168.00297385 88.83886442 -140.74560547 60.72998047 C-139.41314523 59.3539372 -138.09838058 57.96081911 -136.78515625 56.56640625 C-128.29335264 47.74428937 -118.61492728 40.69696074 -108.5 33.875 C-107.60341675 33.26785156 -107.60341675 33.26785156 -106.6887207 32.6484375 C-98.7131987 27.37027596 -92.14639373 23.74864218 -82.3125 25.25 C-79.0104709 26.87204938 -77.14030871 28.15879761 -74.9375 31.0625 C-73.56683039 35.85984363 -73.73311814 39.77985924 -76.0625 44.1875 C-79.1397758 48.67912261 -83.2554003 51.07603189 -87.8046875 53.9375 C-120.00773782 74.60924675 -143.76226265 107.96494741 -152.3125 145.25 C-160.70100066 185.43458761 -157.69455537 226.19868689 -135.49755859 261.45214844 C-129.48561696 270.57286088 -122.70440272 279.15790785 -115.26171875 287.1484375 C-113.51722294 289.02927667 -111.87782432 290.95618031 -110.25 292.9375 C-101.60762508 303.02805666 -89.7756731 311.6363751 -78.8125 319.0625 C-69.50310895 325.51103167 -65.0593603 331.67056201 -62.76171875 342.95507812 C-62.35281427 345.7581183 -62.03429281 348.5566202 -61.75 351.375 C-61.63269531 352.42034912 -61.51539063 353.46569824 -61.39453125 354.54272461 C-60.69058373 360.99854122 -60.11271332 367.46299714 -59.56640625 373.93359375 C-59.50319687 374.67033325 -59.43998749 375.40707275 -59.37486267 376.1661377 C-59.06328331 379.8032462 -58.76399782 383.440428 -58.48999023 387.08056641 C-57.65638714 398.62077369 -57.65638714 398.62077369 -52.375 408.6875 C-49.10077334 411.16797474 -45.92823471 411.37286115 -41.90332031 411.45532227 C-41.03030273 411.47524734 -40.15728516 411.49517242 -39.2578125 411.51570129 C-38.31164062 411.53243393 -37.36546875 411.54916656 -36.390625 411.56640625 C-35.39385742 411.58736862 -34.39708984 411.60833099 -33.37011719 411.62992859 C-30.10099369 411.69651565 -26.83180145 411.75535227 -23.5625 411.8125 C-21.89544006 411.84277283 -21.89544006 411.84277283 -20.19470215 411.87365723 C-12.23419694 412.01648892 -4.27348373 412.13739166 3.6875 412.25 C4.72551758 412.26544861 5.76353516 412.28089722 6.83300781 412.29681396 C12.50634155 412.38001038 18.17930821 412.44562568 23.85314941 412.48117065 C25.56600277 412.49365035 27.27882761 412.51110819 28.99157715 412.53372192 C31.36435849 412.56335687 33.73643074 412.57345322 36.109375 412.578125 C36.79467285 412.59042648 37.4799707 412.60272797 38.18603516 412.61540222 C42.73802248 412.59440637 45.81350611 411.61752057 49.6875 409.25 C57.0792308 400.21566236 56.71141758 386.06711321 57.6875 375 C59.60754922 353.40965931 61.50704237 332.66401621 78.6875 317.25 C81.92544994 314.66945202 85.25626274 312.21869064 88.60229492 309.78076172 C95.10116726 305.03097235 100.8973806 299.8426392 106.6875 294.25 C107.69375812 293.30702237 108.70027221 292.36431781 109.70703125 291.421875 C133.64223247 268.66444374 149.36342017 236.10226948 152.6875 203.25 C152.85185547 201.63931641 152.85185547 201.63931641 153.01953125 199.99609375 C156.41838295 161.61172853 148.2461812 120.57101686 123.890625 89.87109375 C120.26152828 85.55349818 116.56842043 81.3437451 112.6875 77.25 C111.36492187 75.83074219 111.36492187 75.83074219 110.015625 74.3828125 C102.3255319 66.29883014 93.83111609 59.61905016 84.6875 53.25 C83.64078125 52.51910156 82.5940625 51.78820313 81.515625 51.03515625 C55.39021294 33.94534655 23.8575369 27.00808066 -7 27.125 C-8.7020459 27.12246216 -8.7020459 27.12246216 -10.43847656 27.11987305 C-15.42949362 27.1330073 -20.37574679 27.1940421 -25.34765625 27.65234375 C-26.07315674 27.7188916 -26.79865723 27.78543945 -27.54614258 27.85400391 C-29.41415913 28.04716121 -31.27778298 28.28159182 -33.140625 28.51953125 C-37.67935839 28.1338507 -39.150663 26.4819961 -42.3125 23.25 C-44.21079133 17.55512602 -44.28416408 12.22931572 -41.625 6.8125 C-32.66486447 -2.22421789 -11.9331993 0.00956797 0 0 Z " fill="#FECB00" transform="translate(974.3125,-0.25)"/>
<path d="M0 0 C1.01501083 -0.00708481 2.03002167 -0.01416962 3.07579041 -0.02146912 C4.18858871 -0.0189917 5.30138702 -0.01651428 6.44790649 -0.01396179 C8.20678947 -0.02162819 8.20678947 -0.02162819 10.00120544 -0.02944946 C13.21825116 -0.04097939 16.43513734 -0.04341706 19.65219831 -0.04088616 C22.33852702 -0.0398168 25.02483193 -0.04469905 27.71115553 -0.04949158 C34.05001898 -0.06059035 40.38882318 -0.06102247 46.72769165 -0.05497742 C53.26414322 -0.04893968 59.80037943 -0.06124254 66.33679426 -0.08254749 C71.95048849 -0.10017122 77.56411423 -0.10616354 83.17783511 -0.10290974 C86.52981394 -0.10109757 89.88163923 -0.10372607 93.23359299 -0.11762428 C96.97316898 -0.12993929 100.71224495 -0.12322589 104.45181274 -0.11161804 C105.56056259 -0.11926178 106.66931244 -0.12690552 107.81166077 -0.13478088 C117.25891597 -0.06985562 117.25891597 -0.06985562 121.07925415 3.26069641 C124.1077552 7.75123245 125.03842123 11.96946701 124.07925415 17.26069641 C121.98033597 21.30861004 120.31353607 23.59918773 116.07925415 25.26069641 C113.71412086 25.52075863 113.71412086 25.52075863 111.04498291 25.53485107 C110.03004257 25.5448262 109.01510223 25.55480133 107.96940613 25.56507874 C106.86177414 25.56574341 105.75414215 25.56640808 104.61294556 25.5670929 C102.85625298 25.57957817 102.85625298 25.57957817 101.06407166 25.59231567 C97.85529807 25.61228106 94.64667499 25.62305595 91.43784761 25.62814212 C89.43167146 25.63178861 87.42552015 25.63803016 85.41935349 25.64514351 C78.41632748 25.66962852 71.41337545 25.68268794 64.41030884 25.68623352 C57.88907249 25.68986864 51.36830684 25.71976407 44.84721434 25.7616381 C39.24282366 25.79636027 33.63858885 25.81178228 28.03409135 25.81247956 C24.6891198 25.81327173 21.34500925 25.82435342 18.00008011 25.85047722 C14.26775268 25.87730758 10.53672616 25.87258956 6.80435181 25.86006165 C5.70076828 25.87489594 4.59718475 25.88973022 3.4601593 25.90501404 C-4.89777418 25.82505571 -4.89777418 25.82505571 -8.59106445 22.91073608 C-12.07371099 18.94918516 -12.25927274 15.61161507 -12.20980835 10.54975891 C-11.76540943 7.0305999 -10.18648212 4.91484461 -7.92074585 2.26069641 C-4.66601056 0.09087288 -3.76198386 0.00874581 0 0 Z " fill="#ffffff" transform="translate(914.9207458496094,461.7393035888672)"/>
<path d="M0 0 C1.00146561 -0.00960754 2.00293121 -0.01921509 3.03474426 -0.02911377 C4.11600082 -0.03336365 5.19725739 -0.03761353 6.3112793 -0.04199219 C7.98156441 -0.0505423 7.98156441 -0.0505423 9.68559265 -0.05926514 C12.04347788 -0.06871628 14.40137632 -0.07524957 16.75927734 -0.07910156 C20.36083113 -0.08880076 23.96181275 -0.11982119 27.56323242 -0.15136719 C29.85424466 -0.15789797 32.14526098 -0.16314815 34.4362793 -0.16699219 C36.0490551 -0.18551239 36.0490551 -0.18551239 37.69441223 -0.20440674 C43.22954101 -0.18797474 47.32866533 -0.03955911 52.07299805 3.16113281 C55.25354794 6.76575603 55.64254309 10.28432845 55.50268555 14.93847656 C54.76687151 18.74464191 52.84845564 20.51783987 50.07299805 23.16113281 C47.53231 24.43147684 45.72088196 24.3088923 42.87646484 24.33813477 C41.79161301 24.35097 40.70676117 24.36380524 39.58903503 24.37702942 C38.41198502 24.38441635 37.234935 24.39180328 36.0222168 24.39941406 C34.81612259 24.40748581 33.61002838 24.41555756 32.36738586 24.4238739 C29.81101931 24.43772381 27.25463419 24.44844189 24.69824219 24.45629883 C20.78699751 24.47351616 16.87659682 24.51739657 12.96557617 24.56152344 C10.48446261 24.57164961 8.00334185 24.58016595 5.5222168 24.58691406 C4.35123947 24.60442215 3.18026215 24.62193024 1.97380066 24.63996887 C-6.15331961 24.6182415 -6.15331961 24.6182415 -10.11914062 22.27514648 C-13.33911772 18.50988225 -13.94375075 16.21630699 -13.86450195 11.22363281 C-13.14665836 6.65710973 -11.20192008 4.3580767 -7.92700195 1.16113281 C-4.9927289 0.18304179 -3.05888993 0.02370054 0 0 Z " fill="#ffffff" transform="translate(951.927001953125,508.8388671875)"/>
</svg>
